<?xml version="1.0" standalone="no"?>
<!DOCTYPE svg PUBLIC "-//W3C//DTD SVG 20010904//EN"
 "http://www.w3.org/TR/2001/REC-SVG-20010904/DTD/svg10.dtd">
<svg version="1.0" xmlns="http://www.w3.org/2000/svg"
 width="200.000000pt" height="200.000000pt" viewBox="0 0 200.000000 200.000000"
 preserveAspectRatio="xMidYMid meet">
<g transform="translate(0.000000,200.000000) scale(0.100000,-0.100000)"
fill="#000000" stroke="none">
<path d="M1044 1652 c0 -19 19 -24 31 -9 3 4 2 5 -2 2 -3 -3 -11 2 -17 11 -10
13 -12 13 -12 -4z"/>
<path d="M947 1493 c-129 -129 -159 -176 -165 -265 -6 -80 3 -119 43 -179 19
-28 35 -54 35 -58 0 -3 -15 -16 -32 -28 l-31 -22 -28 20 c-16 11 -50 40 -76
65 -58 54 -84 69 -140 79 -45 7 -146 -16 -159 -36 -7 -13 193 -219 244 -250
36 -23 122 -49 162 -49 44 0 98 20 152 56 l53 36 22 -29 c13 -15 23 -33 23
-40 0 -13 -35 -59 -91 -118 -71 -74 -87 -161 -49 -251 l21 -48 118 118 c141
140 164 180 169 287 4 83 -14 136 -65 190 l-24 27 33 23 c72 52 201 91 212 65
2 -6 5 -1 5 10 1 20 -2 21 -41 13 -23 -6 -48 -7 -55 -5 -8 3 -11 1 -8 -4 6 -9
-10 -14 -42 -13 -7 1 -13 -4 -13 -10 0 -6 -3 -7 -6 -4 -4 3 -16 1 -28 -5 -11
-7 -25 -13 -31 -13 -5 -1 -9 -7 -7 -14 2 -8 -3 -11 -11 -8 -7 3 -14 0 -14 -6
0 -7 -4 -20 -8 -29 -4 -11 -3 -18 4 -18 6 0 11 -9 11 -21 0 -11 5 -17 10 -14
6 3 10 -1 10 -9 0 -8 6 -19 13 -23 23 -14 40 -97 31 -150 -4 -26 -8 -51 -8
-55 -1 -3 -4 -10 -8 -14 -5 -4 -8 -15 -8 -25 0 -20 -35 -44 -49 -34 -9 5 -27
96 -24 123 0 6 -3 12 -7 12 -15 0 -21 33 -8 43 9 6 8 7 -4 3 -10 -3 -18 -1
-18 4 0 5 -10 18 -21 29 l-22 20 27 -5 c23 -4 25 -3 14 10 -7 7 -15 11 -18 7
-5 -6 -41 -11 -95 -13 -16 -1 -24 -3 -17 -5 19 -7 14 -29 -8 -30 -13 -1 -18 2
-14 9 4 7 2 8 -5 4 -8 -5 -9 -12 -2 -20 7 -8 5 -12 -7 -13 -9 -1 -32 -5 -50
-9 -37 -7 -130 2 -152 16 -13 9 -13 11 0 20 8 5 10 10 5 10 -6 0 -16 -5 -22
-11 -8 -8 -19 -5 -42 11 -38 29 -50 54 -20 45 45 -15 118 -9 141 11 16 14 20
15 16 4 -4 -11 0 -16 12 -16 15 0 16 4 8 19 -6 12 -15 16 -26 12 -40 -17 -100
-26 -132 -20 -39 6 -110 35 -110 44 0 3 -11 19 -25 35 -14 16 -25 33 -25 38 0
5 -4 6 -10 3 -5 -3 -10 1 -10 10 0 9 -4 14 -9 10 -5 -3 -12 -1 -15 3 -8 13 35
30 62 26 13 -2 21 0 18 4 -4 7 42 9 54 2 6 -4 21 -7 36 -9 6 0 23 -10 38 -22
20 -16 24 -24 16 -34 -9 -11 -7 -12 11 -8 17 5 20 3 14 -8 -5 -8 -4 -11 0 -6
5 4 24 -7 42 -25 18 -17 33 -29 33 -25 0 4 10 2 23 -4 23 -13 68 -19 62 -8 -3
3 9 18 25 33 24 21 28 30 21 45 -6 10 -7 22 -3 26 4 5 1 5 -5 1 -8 -4 -13 -1
-13 8 0 8 -7 19 -15 24 -9 4 -17 18 -18 29 0 12 -4 20 -8 18 -10 -7 -17 65
-11 123 2 28 8 49 13 47 4 -3 11 0 15 6 5 8 3 9 -6 4 -10 -6 -12 -4 -7 9 4 10
7 20 7 22 0 3 5 2 12 -2 7 -4 8 -3 4 5 -9 14 12 43 25 35 8 -5 14 19 9 41 -1
6 2 6 6 2 5 -5 9 -36 10 -70 1 -68 12 -127 24 -127 5 0 6 -10 2 -22 -3 -14 -1
-19 6 -14 10 6 45 -44 39 -55 -1 -3 4 1 12 7 11 10 9 17 -9 42 -27 37 -21 52
56 133 63 65 84 110 84 176 0 39 -30 133 -42 133 -2 0 -56 -53 -121 -117z
m131 43 c1 -12 5 -39 8 -62 4 -29 2 -45 -9 -55 -7 -8 -13 -22 -11 -31 2 -20
-18 -40 -36 -36 -7 2 -14 -5 -15 -15 -2 -9 1 -15 6 -11 5 3 6 10 3 16 -4 7 -2
8 5 4 15 -10 -4 -36 -25 -36 -8 0 -14 -7 -14 -17 0 -9 -3 -14 -6 -10 -9 9 -34
-19 -34 -37 0 -29 -18 -26 -29 6 -26 75 -2 218 38 218 8 0 11 3 8 6 -7 7 30
44 44 44 4 0 10 -6 13 -12 3 -7 2 0 -1 16 -4 19 -2 27 5 22 6 -3 13 -3 16 2
10 16 32 9 34 -12z m12 -873 c0 -34 -5 -74 -11 -90 -14 -38 -114 -133 -140
-133 -16 0 -19 3 -11 13 7 8 6 18 -4 31 -9 14 -11 23 -3 32 6 8 7 14 0 18 -22
14 41 131 66 122 7 -3 10 1 6 10 -3 7 0 14 6 14 6 0 19 16 28 35 9 19 20 32
25 29 4 -3 8 3 8 13 1 14 4 13 15 -7 8 -14 14 -52 15 -87z m30 -44 c0 -5 6 -7
13 -3 9 5 9 4 0 -6 -6 -7 -16 -9 -22 -6 -14 9 -14 26 -1 26 6 0 10 -5 10 -11z"/>
<path d="M1043 1423 c0 -10 4 -10 16 -1 9 7 18 13 20 15 2 1 -5 1 -16 0 -11 0
-20 -7 -20 -14z"/>
<path d="M981 1351 c-8 -5 -9 -11 -3 -15 5 -3 12 1 16 9 6 17 6 18 -13 6z"/>
<path d="M970 1570 c-9 -6 -10 -10 -3 -10 6 0 15 5 18 10 8 12 4 12 -15 0z"/>
<path d="M1095 1300 c-3 -6 1 -7 9 -4 18 7 21 14 7 14 -6 0 -13 -4 -16 -10z"/>
<path d="M1105 1200 c-50 -20 -122 -77 -111 -87 3 -3 12 -1 19 5 8 7 18 8 22
4 5 -4 5 -2 2 4 -8 14 20 27 35 17 7 -3 8 -1 4 6 -11 18 56 41 120 41 53 0
154 -27 154 -41 0 -11 -31 -20 -43 -13 -9 5 -9 4 -1 -5 9 -10 17 -10 34 -1 27
15 50 6 50 -19 0 -13 15 -26 45 -41 26 -13 42 -26 38 -32 -3 -6 -2 -8 4 -5 5
3 17 -3 26 -13 11 -13 12 -20 4 -24 -9 -3 -8 -5 1 -5 7 -1 10 -6 6 -13 -4 -7
-3 -8 5 -4 7 5 21 -2 35 -17 l23 -25 -23 -11 c-13 -6 -26 -6 -29 -1 -3 5 -17
2 -32 -5 -24 -13 -28 -12 -41 6 -10 15 -17 18 -25 10 -13 -13 -30 -15 -22 -2
3 5 0 13 -6 17 -8 4 -9 3 -5 -4 4 -7 4 -12 -1 -12 -15 0 -38 19 -38 32 0 7 -8
13 -17 13 -9 0 -20 4 -25 9 -5 5 -2 6 7 2 8 -4 6 0 -4 8 -11 9 -24 16 -30 16
-5 0 -6 3 -3 7 9 9 -24 32 -47 33 -24 0 100 -116 153 -144 47 -25 127 -26 180
-2 23 11 40 23 39 27 -9 26 -236 241 -273 259 -64 31 -167 36 -230 10z"/>
<path d="M1485 1111 c-3 -5 -2 -12 3 -15 5 -3 9 1 9 9 0 17 -3 19 -12 6z"/>
<path d="M460 1061 c0 -6 4 -13 10 -16 6 -3 7 1 4 9 -7 18 -14 21 -14 7z"/>
<path d="M1400 1050 c-9 -6 -10 -10 -3 -10 6 0 15 5 18 10 8 12 4 12 -15 0z"/>
<path d="M1305 1030 c-2 -4 3 -7 12 -6 10 0 18 -4 18 -11 0 -22 11 -22 11 0 0
23 -30 35 -41 17z"/>
<path d="M776 1021 c-4 -5 -2 -12 3 -15 5 -4 12 -2 15 3 4 5 2 12 -3 15 -5 4
-12 2 -15 -3z"/>
<path d="M646 981 c-4 -5 -2 -12 3 -15 5 -4 12 -2 15 3 4 5 2 12 -3 15 -5 4
-12 2 -15 -3z"/>
<path d="M1126 888 c3 -4 11 -5 19 -1 21 7 19 12 -4 10 -11 0 -18 -5 -15 -9z"/>
<path d="M670 870 c-9 -6 -10 -10 -3 -10 6 0 15 5 18 10 8 12 4 12 -15 0z"/>
<path d="M933 705 c0 -8 4 -12 9 -9 5 3 6 10 3 15 -9 13 -12 11 -12 -6z"/>
<path d="M1096 502 c-3 -5 1 -9 9 -9 8 0 12 4 9 9 -3 4 -7 8 -9 8 -2 0 -6 -4
-9 -8z"/>
<path d="M886 348 c3 -5 10 -6 15 -3 13 9 11 12 -6 12 -8 0 -12 -4 -9 -9z"/>
<path d="M926 352 c-3 -5 1 -9 9 -9 8 0 12 4 9 9 -3 4 -7 8 -9 8 -2 0 -6 -4
-9 -8z"/>
</g>
</svg>
